<svg xmlns="http://www.w3.org/2000/svg" width="16" height="16" viewBox="0 0 16 16" fill="none">
  <path d="M15.9587 3.50859C15.8866 3.14528 15.7255 2.81281 15.5005 2.53816C15.4531 2.47831 15.4035 2.42472 15.3498 2.37113C14.9512 1.97056 14.3918 1.72069 13.7806 1.72069H2.21941C1.60825 1.72069 1.05081 1.97056 0.650344 2.37113C0.59675 2.42472 0.547188 2.47831 0.499625 2.53816C0.274531 2.81278 0.113438 3.14528 0.0433125 3.50859C0.0145 3.64881 0 3.79372 0 3.94022V12.06C0 12.3715 0.0660625 12.6709 0.183875 12.9413C0.293156 13.1995 0.454281 13.433 0.650312 13.6289C0.7 13.6784 0.749344 13.724 0.803187 13.7693C1.18712 14.0873 1.68272 14.2793 2.21941 14.2793H13.7806C14.3175 14.2793 14.8152 14.0873 15.1969 13.7673C15.2506 13.724 15.3002 13.6784 15.3498 13.6289C15.5457 13.433 15.7068 13.1995 15.8183 12.9413V12.9393C15.9361 12.6689 16 12.3715 16 12.06V3.94022C16 3.79372 15.9857 3.64881 15.9587 3.50859ZM1.45341 3.17409C1.65169 2.97603 1.91797 2.85613 2.21941 2.85613H13.7806C14.082 2.85613 14.3507 2.97603 14.5466 3.17409C14.5817 3.20938 14.6147 3.24869 14.6438 3.28775L8.58425 8.56884C8.41713 8.71531 8.21069 8.78766 8 8.78766C7.79144 8.78766 7.58512 8.71531 7.41578 8.56884L1.3585 3.2855C1.38531 3.24644 1.41834 3.20938 1.45341 3.17409ZM1.13544 12.06V4.46047L5.52056 8.28594L1.13766 12.1073C1.13544 12.0928 1.13544 12.0765 1.13544 12.06ZM13.7806 13.1437H2.21941C2.02313 13.1437 1.83947 13.0921 1.68272 13.0014L6.30703 8.97144L6.73875 9.347C7.10003 9.66094 7.55212 9.81994 8 9.81994C8.45019 9.81994 8.90225 9.66094 9.2635 9.347L9.695 8.97144L14.3175 13.0014C14.1605 13.0921 13.9769 13.1437 13.7806 13.1437ZM14.8646 12.06C14.8646 12.0765 14.8646 12.0928 14.8624 12.1073L10.4796 8.28816L14.8646 4.4625V12.06Z" fill="#1A1A1A" fill-opacity="0.6"/>
</svg>