<svg width="40" height="40" viewBox="0 0 40 40" fill="none" xmlns="http://www.w3.org/2000/svg">
<circle cx="20" cy="20" r="20" fill="#F5F5F5"/>
<path fill-rule="evenodd" clip-rule="evenodd" d="M22.38 22.1086C21.782 22.1086 21.2795 21.6281 21.2795 21.0355C21.2795 20.443 21.782 19.9465 22.38 19.9465C22.978 19.9465 23.463 20.443 23.463 21.0355C23.463 21.6281 22.978 22.1086 22.38 22.1086ZM22.634 24.1915C22.077 24.7429 21.218 25.0109 20.008 25.0109C20.0055 25.0109 20.0025 25.0104 19.9995 25.0104C19.997 25.0104 19.994 25.0109 19.991 25.0109C18.781 25.0109 17.9225 24.7429 17.366 24.1915C17.195 24.022 17.195 23.7481 17.366 23.5791C17.5365 23.4102 17.813 23.4102 17.984 23.5791C18.368 23.9596 19.0245 24.1449 19.991 24.1449C19.994 24.1449 19.997 24.1454 19.9995 24.1454C20.0025 24.1454 20.0055 24.1449 20.008 24.1449C20.9745 24.1449 21.6315 23.9596 22.016 23.5791C22.187 23.4097 22.4635 23.4102 22.634 23.5791C22.8045 23.7486 22.8045 24.0225 22.634 24.1915ZM16.537 21.0355C16.537 20.4435 17.0385 19.9465 17.636 19.9465C18.234 19.9465 18.719 20.4435 18.719 21.0355C18.719 21.6281 18.234 22.1086 17.636 22.1086C17.0385 22.1086 16.537 21.6281 16.537 21.0355ZM25.332 14.1994C25.737 14.1994 26.0665 14.5259 26.0665 14.9267C26.0665 15.328 25.737 15.6545 25.332 15.6545C24.927 15.6545 24.5975 15.328 24.5975 14.9267C24.5975 14.5259 24.927 14.1994 25.332 14.1994ZM28 19.8569C28 18.806 27.1375 17.9514 26.077 17.9514C25.618 17.9514 25.1965 18.1119 24.8655 18.3789C23.693 17.6487 22.205 17.2087 20.61 17.1156L21.442 14.5091L23.7285 15.0426C23.7885 15.8676 24.4845 16.5205 25.332 16.5205C26.2185 16.5205 26.94 15.8056 26.94 14.9267C26.94 14.0483 26.2185 13.3334 25.332 13.3334C24.712 13.3334 24.173 13.6831 23.9045 14.1939L21.2475 13.5742C21.025 13.5221 20.8 13.649 20.731 13.865L19.698 17.1002C17.9795 17.1418 16.364 17.5833 15.1055 18.3562C14.779 18.103 14.3685 17.9514 13.923 17.9514C12.8625 17.9514 12 18.806 12 19.8569C12 20.5064 12.33 21.0806 12.8325 21.4244C12.8115 21.5755 12.8005 21.7277 12.8005 21.8817C12.8005 23.1952 13.571 24.4169 14.97 25.3216C16.311 26.1891 18.086 26.6667 19.9675 26.6667C21.849 26.6667 23.624 26.1891 24.965 25.3216C26.364 24.4169 27.1345 23.1952 27.1345 21.8817C27.1345 21.7415 27.125 21.6023 27.1075 21.4641C27.6435 21.1257 28 20.5316 28 19.8569Z" fill="#FF5700"/>
</svg>
