<svg width="150" height="47" viewBox="0 0 150 47" fill="none" xmlns="http://www.w3.org/2000/svg">
<path d="M13.168 44.72C11.12 45.8293 8.13333 46.384 4.208 46.384C2.97067 46.384 1.776 46.2987 0.624 46.128C0.624 43.8667 1.79733 37.936 4.144 28.336C6.53333 18.736 7.728 12.272 7.728 8.944C7.728 8.09066 7.51467 7.19466 7.088 6.256C6.66133 5.27466 6.23467 4.528 5.808 4.016L5.104 3.184L5.36 1.904C8.38933 1.008 13.1467 0.559998 19.632 0.559998C20.2293 1.75466 20.528 3.26933 20.528 5.104C20.528 6.93866 19.632 12.016 17.84 20.336H18.224C21.296 20.336 23.6 18.9493 25.136 16.176C26.7147 13.36 27.9307 8.73067 28.784 2.288C32.5813 1.136 36.336 0.559998 40.048 0.559998C40.1333 0.901332 40.1547 1.84 40.112 3.376C40.0693 4.86933 39.664 6.87466 38.896 9.392C38.1707 11.9093 36.848 14.512 34.928 17.2C33.008 19.8453 30.6613 21.872 27.888 23.28C31.1307 34.4587 33.648 40.048 35.44 40.048C36.1227 40.048 37.2107 39.792 38.704 39.28L39.408 39.024L40.944 42.544C36.976 45.36 32.9653 46.768 28.912 46.768C24.8587 46.768 22.192 44.6773 20.912 40.496C19.632 36.2293 18.672 31.216 18.032 25.456H16.688C14.3413 35.8667 13.168 42.288 13.168 44.72ZM38.47 34.416C38.47 29.1253 40.07 25.008 43.27 22.064C46.5127 19.12 50.502 17.648 55.238 17.648C58.5233 17.648 61.1473 18.3733 63.11 19.824C65.1153 21.232 66.118 23.1307 66.118 25.52C66.118 27.2693 65.5847 28.8267 64.518 30.192C63.4513 31.5573 62.15 32.6027 60.614 33.328C57.3713 34.7787 54.5553 35.6533 52.166 35.952L50.566 36.144C51.0353 38.96 52.4433 40.368 54.79 40.368C55.814 40.368 56.9447 40.1547 58.182 39.728C59.4193 39.2587 60.4007 38.7893 61.126 38.32L62.214 37.68L64.262 40.432C64.262 40.432 64.0273 40.6667 63.558 41.136C63.302 41.392 62.6833 41.904 61.702 42.672C60.7633 43.3973 59.7607 44.0373 58.694 44.592C57.67 45.1467 56.3473 45.6373 54.726 46.064C53.1047 46.5333 51.4833 46.768 49.862 46.768C46.2353 46.768 43.4193 45.7227 41.414 43.632C39.4513 41.4987 38.47 38.4267 38.47 34.416ZM50.31 31.92C51.5473 31.7493 52.7847 30.7467 54.022 28.912C55.2593 27.0347 55.878 25.4773 55.878 24.24C55.878 22.96 55.5153 22.32 54.79 22.32C53.7233 22.32 52.742 23.152 51.846 24.816C50.95 26.48 50.438 28.848 50.31 31.92ZM65.833 46.384H64.745C64.745 43.7387 65.3423 39.728 66.537 34.352C67.7743 28.976 68.393 25.8827 68.393 25.072C68.393 24.2613 68.201 23.472 67.817 22.704C67.433 21.936 67.049 21.36 66.665 20.976L66.089 20.4L66.217 19.44C68.7343 18.6293 73.129 18.224 79.401 18.224C79.8277 19.2053 80.1263 20.2293 80.297 21.296C84.1797 18.9067 87.4437 17.712 90.089 17.712C91.881 17.712 93.289 18.3093 94.313 19.504C95.337 20.656 95.849 22.064 95.849 23.728C95.849 25.3493 95.3797 27.9733 94.441 31.6C93.5023 35.2267 93.033 37.5947 93.033 38.704C93.033 39.7707 93.1823 40.304 93.481 40.304L96.873 39.408L98.025 42.608C96.6597 43.632 94.8677 44.592 92.649 45.488C90.473 46.3413 88.4677 46.768 86.633 46.768C83.0063 46.768 81.193 44.8907 81.193 41.136C81.193 39.5147 81.641 36.8693 82.537 33.2C83.433 29.5307 83.881 27.248 83.881 26.352C83.881 25.4133 83.5823 24.944 82.985 24.944C82.217 24.944 81.193 25.3707 79.913 26.224C79.7423 26.992 79.3157 28.848 78.633 31.792C77.2677 37.9787 76.585 42.4373 76.585 45.168C74.4943 45.9787 70.9103 46.384 65.833 46.384ZM119.191 23.344L113.687 22.896C111.98 30.5333 111.041 34.9707 110.871 36.208C110.743 37.4453 110.679 38.4693 110.679 39.28C110.679 40.048 110.935 40.432 111.447 40.432C112.044 40.432 113.175 40.048 114.839 39.28L116.375 42.352C115.009 43.5893 113.281 44.6347 111.191 45.488C109.1 46.3413 107.073 46.768 105.111 46.768C103.191 46.768 101.655 46.2773 100.503 45.296C99.3505 44.272 98.7745 42.8427 98.7745 41.008C98.7745 39.1733 99.3078 36.2293 100.374 32.176C101.441 28.1227 102.145 25.1147 102.487 23.152C101.463 23.2373 99.9478 23.3867 97.9425 23.6C97.7718 22.704 97.6865 21.872 97.6865 21.104C97.6865 20.2933 97.7932 19.3973 98.0065 18.416H103.127C103.169 17.8613 103.191 16.0053 103.191 12.848L103.062 10.224C107.201 8.85867 111.148 8.176 114.903 8.176C115.201 8.85866 115.351 10.0533 115.351 11.76C115.351 13.424 115.073 15.6427 114.519 18.416H120.279C120.279 20.1653 119.916 21.808 119.191 23.344ZM147.6 20.08C146.704 22.8533 145.936 26.16 145.296 30C144.656 33.7973 144.336 36.464 144.336 38C144.336 39.4933 144.57 40.24 145.04 40.24L148.24 39.344L149.392 42.544C148.026 43.6107 146.277 44.592 144.144 45.488C142.053 46.3413 140.197 46.768 138.576 46.768C135.802 46.768 134.053 45.5733 133.328 43.184C129.957 45.5733 126.97 46.768 124.368 46.768C121.808 46.768 119.824 45.8293 118.416 43.952C117.008 42.0747 116.304 39.3867 116.304 35.888C116.304 31.0667 117.541 26.8213 120.016 23.152C122.49 19.4827 125.754 17.648 129.808 17.648C132.026 17.648 134.288 18.2667 136.592 19.504C136.933 18.736 137.21 18.1813 137.424 17.84C140.496 17.84 143.888 18.5867 147.6 20.08ZM128.336 35.12C128.336 37.2533 128.485 38.5973 128.784 39.152C129.082 39.7067 129.637 39.984 130.448 39.984C131.258 39.984 132.048 39.664 132.816 39.024C132.986 34.0747 133.797 28.8907 135.248 23.472C134.608 23.088 133.861 22.896 133.008 22.896C132.197 22.896 131.45 23.3653 130.768 24.304C130.128 25.2427 129.637 26.416 129.296 27.824C128.656 30.512 128.336 32.944 128.336 35.12Z" fill="#FEFEFE"/>
</svg>
