<svg width="75" height="24" viewBox="0 0 75 24" fill="none" xmlns="http://www.w3.org/2000/svg">
<path d="M6.584 22.36C5.56 22.9147 4.06667 23.192 2.104 23.192C1.48533 23.192 0.888 23.1493 0.312 23.064C0.312 21.9333 0.898667 18.968 2.072 14.168C3.26667 9.368 3.864 6.136 3.864 4.472C3.864 4.04533 3.75733 3.59733 3.544 3.128C3.33067 2.63733 3.11733 2.264 2.904 2.008L2.552 1.592L2.68 0.952C4.19467 0.503999 6.57333 0.279999 9.816 0.279999C10.1147 0.877332 10.264 1.63467 10.264 2.552C10.264 3.46933 9.816 6.008 8.92 10.168H9.112C10.648 10.168 11.8 9.47467 12.568 8.088C13.3573 6.68 13.9653 4.36533 14.392 1.144C16.2907 0.567999 18.168 0.279999 20.024 0.279999C20.0667 0.450666 20.0773 0.919999 20.056 1.688C20.0347 2.43467 19.832 3.43733 19.448 4.696C19.0853 5.95467 18.424 7.256 17.464 8.6C16.504 9.92267 15.3307 10.936 13.944 11.64C15.5653 17.2293 16.824 20.024 17.72 20.024C18.0613 20.024 18.6053 19.896 19.352 19.64L19.704 19.512L20.472 21.272C18.488 22.68 16.4827 23.384 14.456 23.384C12.4293 23.384 11.096 22.3387 10.456 20.248C9.816 18.1147 9.336 15.608 9.016 12.728H8.344C7.17067 17.9333 6.584 21.144 6.584 22.36ZM19.235 17.208C19.235 14.5627 20.035 12.504 21.635 11.032C23.2563 9.56 25.251 8.824 27.619 8.824C29.2617 8.824 30.5737 9.18667 31.555 9.912C32.5577 10.616 33.059 11.5653 33.059 12.76C33.059 13.6347 32.7923 14.4133 32.259 15.096C31.7257 15.7787 31.075 16.3013 30.307 16.664C28.6857 17.3893 27.2777 17.8267 26.083 17.976L25.283 18.072C25.5177 19.48 26.2217 20.184 27.395 20.184C27.907 20.184 28.4723 20.0773 29.091 19.864C29.7097 19.6293 30.2003 19.3947 30.563 19.16L31.107 18.84L32.131 20.216C32.131 20.216 32.0137 20.3333 31.779 20.568C31.651 20.696 31.3417 20.952 30.851 21.336C30.3817 21.6987 29.8803 22.0187 29.347 22.296C28.835 22.5733 28.1737 22.8187 27.363 23.032C26.5523 23.2667 25.7417 23.384 24.931 23.384C23.1177 23.384 21.7097 22.8613 20.707 21.816C19.7257 20.7493 19.235 19.2133 19.235 17.208ZM25.155 15.96C25.7737 15.8747 26.3923 15.3733 27.011 14.456C27.6297 13.5173 27.939 12.7387 27.939 12.12C27.939 11.48 27.7577 11.16 27.395 11.16C26.8617 11.16 26.371 11.576 25.923 12.408C25.475 13.24 25.219 14.424 25.155 15.96ZM32.9165 23.192H32.3725C32.3725 21.8693 32.6712 19.864 33.2685 17.176C33.8872 14.488 34.1965 12.9413 34.1965 12.536C34.1965 12.1307 34.1005 11.736 33.9085 11.352C33.7165 10.968 33.5245 10.68 33.3325 10.488L33.0445 10.2L33.1085 9.72C34.3672 9.31467 36.5645 9.112 39.7005 9.112C39.9138 9.60267 40.0632 10.1147 40.1485 10.648C42.0898 9.45333 43.7218 8.856 45.0445 8.856C45.9405 8.856 46.6445 9.15467 47.1565 9.752C47.6685 10.328 47.9245 11.032 47.9245 11.864C47.9245 12.6747 47.6898 13.9867 47.2205 15.8C46.7512 17.6133 46.5165 18.7973 46.5165 19.352C46.5165 19.8853 46.5912 20.152 46.7405 20.152L48.4365 19.704L49.0125 21.304C48.3298 21.816 47.4338 22.296 46.3245 22.744C45.2365 23.1707 44.2338 23.384 43.3165 23.384C41.5032 23.384 40.5965 22.4453 40.5965 20.568C40.5965 19.7573 40.8205 18.4347 41.2685 16.6C41.7165 14.7653 41.9405 13.624 41.9405 13.176C41.9405 12.7067 41.7912 12.472 41.4925 12.472C41.1085 12.472 40.5965 12.6853 39.9565 13.112C39.8712 13.496 39.6578 14.424 39.3165 15.896C38.6338 18.9893 38.2925 21.2187 38.2925 22.584C37.2472 22.9893 35.4552 23.192 32.9165 23.192ZM59.5953 11.672L56.8433 11.448C55.9899 15.2667 55.5206 17.4853 55.4353 18.104C55.3713 18.7227 55.3393 19.2347 55.3393 19.64C55.3393 20.024 55.4673 20.216 55.7233 20.216C56.0219 20.216 56.5873 20.024 57.4193 19.64L58.1873 21.176C57.5046 21.7947 56.6406 22.3173 55.5953 22.744C54.5499 23.1707 53.5366 23.384 52.5553 23.384C51.5953 23.384 50.8273 23.1387 50.2513 22.648C49.6752 22.136 49.3872 21.4213 49.3872 20.504C49.3872 19.5867 49.6539 18.1147 50.1872 16.088C50.7206 14.0613 51.0726 12.5573 51.2433 11.576C50.7313 11.6187 49.9739 11.6933 48.9712 11.8C48.8859 11.352 48.8432 10.936 48.8432 10.552C48.8432 10.1467 48.8966 9.69867 49.0032 9.208H51.5633C51.5846 8.93067 51.5953 8.00267 51.5953 6.424L51.5312 5.112C53.6006 4.42933 55.5739 4.088 57.4513 4.088C57.6006 4.42933 57.6753 5.02667 57.6753 5.88C57.6753 6.712 57.5366 7.82133 57.2593 9.208H60.1393C60.1393 10.0827 59.9579 10.904 59.5953 11.672ZM73.7998 10.04C73.3518 11.4267 72.9678 13.08 72.6478 15C72.3278 16.8987 72.1678 18.232 72.1678 19C72.1678 19.7467 72.2851 20.12 72.5198 20.12L74.1198 19.672L74.6958 21.272C74.0131 21.8053 73.1384 22.296 72.0718 22.744C71.0264 23.1707 70.0984 23.384 69.2878 23.384C67.9011 23.384 67.0264 22.7867 66.6638 21.592C64.9784 22.7867 63.4851 23.384 62.1838 23.384C60.9038 23.384 59.9118 22.9147 59.2078 21.976C58.5038 21.0373 58.1518 19.6933 58.1518 17.944C58.1518 15.5333 58.7704 13.4107 60.0078 11.576C61.2451 9.74133 62.8771 8.824 64.9038 8.824C66.0131 8.824 67.1438 9.13333 68.2958 9.752C68.4664 9.368 68.6051 9.09067 68.7118 8.92C70.2478 8.92 71.9438 9.29333 73.7998 10.04ZM64.1678 17.56C64.1678 18.6267 64.2424 19.2987 64.3918 19.576C64.5411 19.8533 64.8184 19.992 65.2238 19.992C65.6291 19.992 66.0238 19.832 66.4078 19.512C66.4931 17.0373 66.8984 14.4453 67.6238 11.736C67.3038 11.544 66.9304 11.448 66.5038 11.448C66.0984 11.448 65.7251 11.6827 65.3838 12.152C65.0638 12.6213 64.8184 13.208 64.6478 13.912C64.3278 15.256 64.1678 16.472 64.1678 17.56Z" fill="#FF3263"/>
</svg>
