<svg width="116" height="80" viewBox="0 0 116 80" fill="none" xmlns="http://www.w3.org/2000/svg">
<path d="M92.2079 0H2.16784C1.72566 0.000497799 1.30172 0.175657 0.989051 0.487048C0.676379 0.79844 0.5005 1.22064 0.5 1.66101V78.339C0.5005 78.7794 0.676379 79.2016 0.989051 79.513C1.30172 79.8243 1.72566 79.9995 2.16784 80H92.2079C92.6501 79.9995 93.074 79.8243 93.3867 79.513C93.6993 79.2016 93.8752 78.7794 93.8757 78.339V1.66101C93.8752 1.22064 93.6993 0.79844 93.3867 0.487048C93.074 0.175657 92.6501 0.000497799 92.2079 0ZM93.2061 78.3393C93.206 78.6033 93.1009 78.8565 92.9138 79.0436C92.7268 79.2307 92.473 79.3364 92.2079 79.3377H2.16784C1.90259 79.3369 1.64849 79.2313 1.46133 79.0441C1.27417 78.8569 1.16926 78.6034 1.16962 78.3393V1.66101C1.16926 1.39684 1.27417 1.14333 1.46133 0.956135C1.64849 0.768939 1.90259 0.66336 2.16784 0.662577H92.2079C92.473 0.663855 92.7268 0.769592 92.9138 0.95668C93.1009 1.14377 93.206 1.397 93.2061 1.66101V78.3393Z" fill="#1A1A1A"/>
<path d="M22.9513 66.3662C22.9513 66.4844 22.9481 66.6026 22.9419 66.7176C22.8509 68.4479 22.0965 70.0775 20.8345 71.2701C19.5725 72.4628 17.8991 73.1277 16.1593 73.1277C14.4195 73.1277 12.746 72.4628 11.484 71.2701C10.222 70.0775 9.46768 68.4479 9.37663 66.7176C9.37043 66.6026 9.36719 66.4844 9.36719 66.3662C9.36719 64.5722 10.0828 62.8517 11.3565 61.5832C12.6302 60.3147 14.3578 59.6021 16.1591 59.6021C17.9605 59.6021 19.688 60.3147 20.9618 61.5832C22.2355 62.8517 22.9511 64.5722 22.9511 66.3662H22.9513Z" fill="#FF3263"/>
<path d="M85.211 61.8558H31.8437C31.5508 61.8668 31.2736 61.9904 31.0703 62.2007C30.867 62.411 30.7534 62.6915 30.7534 62.9835C30.7534 63.2754 30.867 63.5559 31.0703 63.7662C31.2736 63.9765 31.5508 64.1001 31.8437 64.1111H85.211C85.511 64.1219 85.803 64.0136 86.0229 63.8102C86.2428 63.6067 86.3727 63.3247 86.384 63.026C86.3954 62.7272 86.2872 62.4363 86.0833 62.2169C85.8794 61.9975 85.5965 61.8676 85.2966 61.8558C85.2681 61.8547 85.2395 61.8547 85.211 61.8558Z" fill="#FF3263"/>
<path d="M54.8077 68.6211H31.8441C31.5442 68.6211 31.2566 68.7397 31.0445 68.9509C30.8325 69.1621 30.7134 69.4485 30.7134 69.7472C30.7134 70.0458 30.8325 70.3322 31.0445 70.5434C31.2566 70.7546 31.5442 70.8732 31.8441 70.8732H54.8077C55.1076 70.8737 55.3954 70.7555 55.6078 70.5447C55.8202 70.3339 55.9398 70.0477 55.9403 69.749C55.9408 69.4504 55.8222 69.1638 55.6105 68.9522C55.3988 68.7407 55.1114 68.6216 54.8115 68.6211H54.8077Z" fill="#DADADA"/>
<path d="M113.6 53.4902H23.559C23.0548 53.4896 22.5714 53.2899 22.2149 52.9348C21.8583 52.5798 21.6578 52.0983 21.6572 51.5962V12.2431C21.6578 11.7409 21.8583 11.2595 22.2149 10.9045C22.5714 10.5494 23.0548 10.3497 23.559 10.3491H113.598C114.103 10.3497 114.586 10.5494 114.943 10.9045C115.299 11.2595 115.5 11.7409 115.5 12.2431V51.5951C115.5 52.0973 115.3 52.5788 114.943 52.9341C114.587 53.2893 114.104 53.4893 113.6 53.4902Z" fill="#FEFEFE"/>
<path d="M41.8964 24.2989C41.5962 24.2859 41.303 24.3921 41.0815 24.5943C40.8599 24.7965 40.7281 25.0781 40.7149 25.3771C40.7018 25.6761 40.8085 25.968 41.0115 26.1887C41.2146 26.4094 41.4973 26.5407 41.7975 26.5537C41.8305 26.5552 41.8634 26.5552 41.8964 26.5537H95.2627C95.5543 26.541 95.8298 26.4167 96.0317 26.2067C96.2336 25.9966 96.3463 25.7171 96.3463 25.4263C96.3463 25.1356 96.2336 24.856 96.0317 24.646C95.8298 24.4359 95.5543 24.3116 95.2627 24.2989H41.8964Z" fill="#FF3263"/>
<path d="M41.8964 30.8316C41.5962 30.8186 41.303 30.9248 41.0815 31.127C40.8599 31.3292 40.7281 31.6108 40.7149 31.9098C40.7018 32.2088 40.8085 32.5007 41.0115 32.7214C41.2146 32.9421 41.4973 33.0734 41.7975 33.0864C41.8305 33.0879 41.8634 33.0879 41.8964 33.0864H95.2627C95.5543 33.0738 95.8298 32.9494 96.0317 32.7394C96.2336 32.5294 96.3463 32.2498 96.3463 31.959C96.3463 31.6683 96.2336 31.3887 96.0317 31.1787C95.8298 30.9687 95.5543 30.8443 95.2627 30.8316H41.8964Z" fill="#FF3263"/>
<path d="M41.8967 37.2845C41.605 37.2972 41.3295 37.4215 41.1276 37.6316C40.9257 37.8416 40.813 38.1212 40.813 38.4119C40.813 38.7027 40.9257 38.9822 41.1276 39.1923C41.3295 39.4023 41.605 39.5266 41.8967 39.5393H64.8603C65.009 39.5458 65.1575 39.523 65.2973 39.4723C65.4371 39.4217 65.5656 39.344 65.6753 39.2439C65.785 39.1438 65.8738 39.0232 65.9367 38.8889C65.9996 38.7545 66.0353 38.6092 66.0418 38.4612C66.0483 38.3131 66.0255 38.1652 65.9746 38.026C65.9237 37.8867 65.8457 37.7588 65.7452 37.6496C65.6447 37.5403 65.5235 37.4518 65.3887 37.3892C65.2538 37.3266 65.1079 37.291 64.9592 37.2845C64.9263 37.2831 64.8933 37.2831 64.8603 37.2845H41.8967Z" fill="#FF3263"/>
</svg>
