<svg width="40" height="40" viewBox="0 0 40 40" fill="none" xmlns="http://www.w3.org/2000/svg">
<circle cx="20" cy="20" r="20" fill="#FEFEFE"/>
<path d="M26.72 12H13.37C13.1979 11.9919 13.026 12.0179 12.8639 12.0764C12.7019 12.1348 12.553 12.2247 12.4257 12.3408C12.2985 12.4569 12.1954 12.597 12.1223 12.753C12.0493 12.909 12.0077 13.0779 12 13.25V26.63C12.0101 26.9901 12.1577 27.3328 12.4124 27.5875C12.6672 27.8423 13.0098 27.9899 13.37 28H26.72C27.0701 27.9844 27.4002 27.8322 27.6395 27.5761C27.8788 27.32 28.0082 26.9804 28 26.63V13.25C28.0029 13.0825 27.9715 12.9162 27.9078 12.7612C27.8441 12.6063 27.7494 12.466 27.6295 12.349C27.5097 12.2319 27.3672 12.1406 27.2108 12.0806C27.0544 12.0206 26.8874 11.9931 26.72 12ZM17 25.34H14.67V18.21H17V25.34ZM15.89 17.13C15.7274 17.1356 15.5654 17.1076 15.4142 17.0477C15.2629 16.9877 15.1257 16.8972 15.0111 16.7817C14.8966 16.6662 14.8071 16.5282 14.7484 16.3765C14.6897 16.2247 14.663 16.0625 14.67 15.9C14.6628 15.7357 14.69 15.5717 14.7499 15.4185C14.8099 15.2654 14.9011 15.1264 15.0179 15.0106C15.1346 14.8948 15.2743 14.8047 15.4279 14.746C15.5816 14.6874 15.7458 14.6615 15.91 14.67C16.0726 14.6643 16.2346 14.6923 16.3858 14.7523C16.5371 14.8122 16.6743 14.9028 16.7889 15.0183C16.9034 15.1338 16.9929 15.2717 17.0516 15.4235C17.1103 15.5752 17.137 15.7374 17.13 15.9C17.1372 16.0643 17.11 16.2283 17.05 16.3814C16.9901 16.5346 16.8989 16.6735 16.7821 16.7893C16.6654 16.9051 16.5257 16.9953 16.3721 17.0539C16.2184 17.1126 16.0542 17.1385 15.89 17.13ZM25.34 25.34H23V21.44C23 20.51 22.67 19.87 21.84 19.87C21.5822 19.8722 21.3313 19.9541 21.1219 20.1045C20.9124 20.2549 20.7546 20.4664 20.67 20.71C20.605 20.8926 20.5778 21.0865 20.59 21.28V25.34H18.29V18.21H20.59V19.21C20.7945 18.8343 21.0988 18.5225 21.4694 18.3089C21.84 18.0954 22.2624 17.9885 22.69 18C24.2 18 25.34 19 25.34 21.13V25.34Z" fill="#0A66C2"/>
</svg>